<?xml version="1.0" encoding="UTF-8" standalone="no"?>
<svg
   xmlns:dc="http://purl.org/dc/elements/1.1/"
   xmlns:cc="http://creativecommons.org/ns#"
   xmlns:rdf="http://www.w3.org/1999/02/22-rdf-syntax-ns#"
   xmlns:svg="http://www.w3.org/2000/svg"
   xmlns="http://www.w3.org/2000/svg"
   xmlns:sodipodi="http://sodipodi.sourceforge.net/DTD/sodipodi-0.dtd"
   xmlns:inkscape="http://www.inkscape.org/namespaces/inkscape"
   width="31.999901"
   height="31.999901"
   viewBox="0 0 31.999901 31.999901"
   fill="none"
   version="1.1"
   id="svg839"
   sodipodi:docname="favicon.svg"
   inkscape:version="1.0 (4035a4f, 2020-05-01)">
  <metadata
     id="metadata845">
    <rdf:RDF>
      <cc:Work
         rdf:about="">
        <dc:format>image/svg+xml</dc:format>
        <dc:type
           rdf:resource="http://purl.org/dc/dcmitype/StillImage" />
        <dc:title></dc:title>
      </cc:Work>
    </rdf:RDF>
  </metadata>
  <defs
     id="defs843" />
  <sodipodi:namedview
     fit-margin-bottom="0"
     fit-margin-right="0"
     fit-margin-left="0"
     fit-margin-top="0"
     inkscape:lockguides="false"
     inkscape:document-rotation="0"
     pagecolor="#ffffff"
     bordercolor="#666666"
     borderopacity="1"
     objecttolerance="10"
     gridtolerance="10"
     guidetolerance="10"
     inkscape:pageopacity="0"
     inkscape:pageshadow="2"
     inkscape:window-width="1280"
     inkscape:window-height="673"
     id="namedview841"
     showgrid="false"
     inkscape:zoom="2.2684896"
     inkscape:cx="96.785503"
     inkscape:cy="46.550669"
     inkscape:window-x="0"
     inkscape:window-y="23"
     inkscape:window-maximized="0"
     inkscape:current-layer="svg839" />
  <path
     fill-rule="evenodd"
     clip-rule="evenodd"
     d="M 0,16 C 0,7.16002 7.16002,0 16,0 24.84,0 32,7.16002 31.9999,16 31.9999,24.832 24.8399,31.9999 16,31.9999 7.16002,31.9999 0,24.832 0,16 Z M 6.39997,25.6 19.504,19.504 25.6,6.39997 12.496,12.496 Z M 17.76,16 c 0,0.968 -0.7841,1.76 -1.76,1.76 -0.968,0 -1.7601,-0.792 -1.7601,-1.76 0,-0.9681 0.792,-1.7601 1.7601,-1.7601 0.976,0 1.76,0.792 1.76,1.7601 z"
     fill="#e1e1e6"
     id="path837" />
</svg>
